<?xml version="1.0" standalone="no"?>
<!DOCTYPE svg PUBLIC "-//W3C//DTD SVG 20010904//EN"
 "http://www.w3.org/TR/2001/REC-SVG-20010904/DTD/svg10.dtd">
<svg version="1.0" xmlns="http://www.w3.org/2000/svg"
 width="2592.000000pt" height="762.000000pt" viewBox="0 0 2592.000000 762.000000"
 preserveAspectRatio="xMidYMid meet">

<g transform="translate(0.000000,762.000000) scale(0.100000,-0.100000)"
fill="#000000" stroke="none">
<path d="M16556 7239 c-123 -18 -265 -102 -346 -205 -82 -103 -112 -182 -118
-316 -2 -60 -8 -108 -12 -108 -4 0 -33 10 -66 22 -57 22 -72 23 -509 26 -380
2 -460 1 -520 -13 -80 -18 -190 -75 -255 -132 l-44 -40 -59 48 c-79 64 -160
105 -242 124 -57 14 -136 15 -519 13 -436 -3 -453 -4 -509 -25 -78 -30 -166
-85 -219 -136 l-43 -42 -40 38 c-48 47 -150 109 -230 139 -59 23 -67 23 -475
23 -410 0 -416 0 -480 -23 -79 -29 -171 -83 -228 -136 l-43 -39 -42 40 c-54
53 -143 109 -215 136 -54 20 -76 22 -482 25 -289 2 -444 0 -485 -8 -203 -39
-380 -212 -430 -421 -22 -96 -22 -2361 0 -2458 36 -150 147 -294 281 -364 127
-66 154 -68 628 -65 413 3 422 3 486 26 75 28 185 98 227 145 l29 34 48 -44
c55 -50 155 -108 236 -137 51 -19 85 -20 438 -24 359 -3 387 -2 464 17 109 28
199 80 284 165 l72 71 60 -57 c105 -98 236 -163 382 -188 46 -8 384 -10 1145
-8 l1080 3 70 23 c115 39 217 98 295 170 l74 68 35 -39 c80 -89 225 -171 365
-207 77 -19 108 -20 1091 -20 983 0 1014 1 1091 20 147 38 292 122 375 219
l41 48 77 -76 c87 -87 172 -140 286 -179 l80 -27 1110 0 1110 0 80 28 c105 37
205 101 284 181 l64 65 63 -63 c107 -108 215 -169 360 -201 103 -24 764 -17
839 8 64 21 164 81 215 130 l41 38 55 -49 c65 -59 155 -106 241 -127 53 -14
121 -16 425 -13 l363 3 80 27 c251 85 432 290 481 546 21 110 20 2205 -1 2305
-42 200 -207 369 -412 422 -85 22 -849 22 -943 -1 -79 -18 -179 -73 -241 -131
l-46 -43 -43 39 c-57 52 -152 108 -220 129 -49 15 -107 17 -505 17 -450 0
-450 0 -515 -24 -86 -32 -163 -81 -224 -146 l-50 -53 -70 58 c-88 72 -188 124
-292 150 -79 20 -104 20 -1170 18 l-1089 -3 -65 -24 c-235 -85 -391 -241 -468
-466 l-27 -80 -3 -472 c-2 -260 -6 -473 -11 -473 -4 0 -11 4 -16 9 -6 5 -46
22 -90 38 l-80 27 -334 4 c-366 4 -458 -3 -554 -44 -107 -44 -97 -54 -97 90
l0 126 243 0 c133 0 271 5 307 11 128 20 266 112 327 217 55 93 63 144 63 385
0 241 -7 287 -55 376 -36 65 -126 151 -194 186 -88 44 -164 55 -401 55 -118 0
-225 3 -238 6 -31 9 -52 53 -52 111 0 206 -158 403 -390 485 -64 22 -75 23
-495 24 -236 1 -457 -2 -489 -7z m919 -307 c61 -28 98 -62 133 -122 25 -41 27
-56 32 -185 6 -165 20 -203 91 -247 66 -41 126 -48 418 -48 152 0 282 -5 303
-10 21 -6 51 -22 68 -37 57 -47 60 -63 60 -278 0 -202 -3 -218 -44 -263 -49
-55 -58 -56 -396 -63 -352 -7 -384 -12 -439 -75 -56 -63 -56 -63 -56 -764 l0
-645 23 -50 c29 -63 57 -93 99 -104 75 -21 149 33 178 131 12 40 15 105 15
298 0 244 0 246 26 298 29 59 79 106 143 136 44 20 61 21 396 21 344 0 351 0
400 -23 63 -29 110 -74 141 -135 l25 -48 -3 -387 -3 -387 -31 -65 c-55 -116
-160 -201 -289 -235 -88 -22 -1971 -23 -2058 0 -134 35 -235 115 -290 233
l-32 67 -3 1395 c-2 947 0 1407 8 1431 21 75 116 156 207 178 21 5 216 9 433
8 389 -2 396 -2 445 -25z m-6194 -594 c68 -36 120 -98 139 -166 6 -22 10 -184
10 -403 0 -362 0 -366 23 -410 26 -49 89 -89 142 -89 40 0 94 28 119 63 20 27
21 44 26 415 5 384 5 387 29 432 40 76 77 115 143 151 l63 34 370 0 370 0 57
-28 c62 -30 115 -83 150 -149 23 -43 23 -45 23 -438 0 -390 0 -396 -23 -441
-36 -74 -87 -125 -160 -161 l-66 -33 -261 -5 c-285 -6 -296 -8 -348 -69 -62
-74 -35 -153 68 -197 33 -15 85 -19 305 -23 l265 -6 64 -34 c72 -40 122 -97
146 -171 14 -41 16 -98 13 -402 -3 -340 -4 -354 -25 -393 -36 -67 -91 -122
-151 -152 l-57 -28 -365 0 -365 0 -67 33 c-49 24 -76 45 -101 80 -75 103 -71
84 -77 437 -4 278 -7 324 -22 352 -29 52 -64 73 -121 73 -62 0 -106 -27 -139
-85 -22 -39 -23 -48 -28 -370 -5 -315 -6 -332 -27 -370 -33 -61 -77 -103 -135
-130 l-53 -25 -391 0 -391 0 -60 30 c-64 32 -101 72 -133 142 -19 42 -20 78
-20 1198 0 1126 1 1156 20 1198 39 86 86 131 165 160 19 7 169 11 422 11 l391
1 63 -32z m3073 12 c57 -22 118 -78 153 -141 17 -32 18 -88 23 -1014 l5 -980
23 -47 c58 -118 196 -118 253 -1 l24 48 5 980 c5 938 6 981 24 1015 35 64 65
96 118 126 l53 29 423 3 423 3 60 -27 c64 -29 105 -69 141 -137 l23 -42 3
-1055 c3 -1115 2 -1139 -43 -1234 -55 -114 -176 -208 -303 -235 -74 -15 -2080
-15 -2154 0 -170 36 -306 173 -338 339 -6 33 -10 440 -10 1105 0 1197 -6 1110
85 1201 83 83 79 82 547 83 386 1 410 0 462 -19z m7579 -17 c90 -43 169 -119
210 -202 l32 -66 0 -335 0 -335 -31 -65 c-45 -94 -102 -153 -188 -195 -100
-50 -170 -57 -496 -53 l-275 3 -58 28 c-38 19 -69 44 -92 74 -58 77 -66 119
-64 369 1 191 -1 227 -16 258 -33 68 -105 103 -179 86 -53 -12 -86 -38 -113
-90 l-23 -43 0 -760 0 -759 27 -49 c34 -63 77 -90 142 -91 63 0 109 26 139 81
21 37 23 54 25 238 2 159 6 205 19 235 25 56 93 123 149 147 48 21 60 22 387
19 l337 -3 72 -34 c88 -41 171 -123 211 -208 l27 -58 0 -295 0 -295 -26 -55
c-40 -86 -118 -163 -207 -207 l-76 -38 -1044 -3 c-1162 -3 -1109 -5 -1224 64
-70 43 -138 125 -171 204 l-22 55 0 1040 c0 1175 -6 1087 81 1205 50 69 127
124 211 150 55 18 105 19 1113 17 l1055 -2 68 -32z m1613 10 c44 -24 93 -74
121 -126 16 -29 19 -76 24 -437 6 -441 8 -457 64 -515 55 -59 144 -64 193 -12
53 56 56 81 62 522 l5 410 27 47 c16 25 45 60 65 77 72 59 88 61 514 61 l387
0 63 -32 c68 -36 120 -98 139 -166 15 -54 14 -2133 -1 -2204 -33 -157 -152
-283 -305 -323 -46 -12 -123 -15 -364 -15 -352 0 -374 4 -446 75 -82 82 -78
63 -84 495 -5 360 -6 388 -25 424 -29 58 -65 80 -128 80 -69 0 -107 -26 -138
-96 -23 -52 -24 -60 -29 -423 l-5 -370 -27 -47 c-35 -59 -89 -103 -150 -124
-40 -13 -98 -15 -375 -12 l-328 3 -75 36 c-129 62 -218 178 -240 314 -6 36
-10 468 -10 1101 0 894 2 1047 15 1091 19 65 84 139 150 170 l50 23 405 -2
c395 -3 406 -4 446 -25z"/>
<path d="M885 2469 c-114 -15 -231 -46 -293 -78 -155 -78 -228 -247 -226 -526
2 -286 85 -448 267 -523 129 -54 230 -68 677 -92 198 -10 273 -25 308 -62 56
-60 76 -202 48 -332 -30 -131 -81 -167 -263 -186 -185 -20 -451 -5 -529 29
-85 38 -115 100 -116 245 l-1 76 -205 0 -205 0 6 -137 c9 -205 41 -298 134
-391 110 -110 236 -145 573 -157 320 -11 619 15 757 66 69 26 151 102 190 176
59 111 75 182 81 355 12 419 -76 559 -385 612 -79 14 -168 22 -598 56 -159 13
-233 33 -280 74 -30 26 -36 41 -45 96 -22 145 -7 253 45 304 59 60 123 71 410
71 226 0 255 -2 300 -20 71 -29 88 -64 93 -187 l4 -98 211 0 210 0 -7 95 c-9
126 -30 237 -57 292 -30 61 -114 145 -178 177 -120 61 -175 69 -531 72 -179 1
-356 -2 -395 -7z"/>
<path d="M16726 2465 c-183 -26 -307 -75 -373 -148 -141 -157 -171 -561 -58
-792 32 -65 106 -139 170 -169 134 -63 233 -79 615 -100 180 -10 293 -21 327
-31 101 -30 140 -117 131 -290 -7 -136 -44 -203 -130 -240 -110 -45 -553 -45
-669 2 -83 33 -119 110 -119 253 l0 70 -206 0 -207 0 7 -127 c4 -70 12 -150
18 -178 18 -86 62 -167 126 -227 111 -107 202 -133 505 -149 144 -8 258 -8
406 0 367 20 486 62 580 202 84 126 118 301 101 531 -13 194 -37 271 -106 348
-91 100 -229 134 -679 165 -326 23 -383 32 -452 71 -54 31 -60 42 -73 150 -24
193 17 285 145 319 76 21 417 32 523 17 144 -21 178 -58 188 -210 l7 -92 203
0 204 0 0 63 c0 110 -27 257 -60 323 -55 112 -168 193 -320 229 -102 25 -653
31 -804 10z"/>
<path d="M20460 2473 c-88 -7 -216 -35 -290 -64 -169 -65 -257 -188 -298 -414
-14 -75 -17 -170 -17 -585 0 -479 1 -498 23 -599 13 -57 36 -132 52 -167 48
-106 161 -210 270 -249 133 -48 391 -67 715 -55 173 7 227 13 307 34 200 51
291 118 371 274 83 159 82 153 82 762 -1 520 -1 537 -23 614 -49 175 -131 296
-240 354 -81 43 -224 80 -362 92 -106 9 -486 11 -590 3z m445 -342 c189 -13
267 -47 314 -139 37 -73 41 -131 41 -565 0 -454 -6 -515 -53 -607 -27 -53
-101 -103 -181 -120 -129 -29 -423 -29 -562 0 -71 15 -131 60 -156 118 -39 87
-48 202 -48 604 0 397 7 478 48 572 37 83 127 123 307 136 142 10 146 10 290
1z"/>
<path d="M2895 2461 c-13 -23 -715 -2089 -715 -2107 0 -3 96 -3 213 -2 l212 3
69 198 69 197 466 0 466 0 70 -200 69 -200 209 0 c195 0 209 1 205 18 -3 9
-159 460 -348 1002 -188 542 -351 1011 -362 1043 l-20 57 -298 0 c-177 0 -301
-4 -305 -9z m495 -847 c99 -296 180 -542 180 -546 0 -10 -730 -10 -730 0 -1
13 364 1092 367 1088 2 -2 85 -246 183 -542z"/>
<path d="M4410 1410 l0 -1060 205 0 205 0 0 283 c0 276 -13 898 -26 1290 -4
120 -3 197 3 197 5 0 214 -397 465 -882 l456 -883 346 -3 346 -2 0 1060 0
1060 -205 0 -205 0 0 -132 c0 -73 7 -470 16 -882 13 -660 13 -791 -3 -751 -2
6 -210 404 -461 885 l-458 875 -342 3 -342 2 0 -1060z"/>
<path d="M6780 1410 l0 -1060 205 0 205 0 0 1060 0 1060 -205 0 -205 0 0
-1060z"/>
<path d="M7390 2295 l0 -175 315 0 315 0 0 -885 0 -885 205 0 205 0 0 885 0
885 320 0 320 0 -2 173 -3 172 -837 3 -838 2 0 -175z"/>
<path d="M9775 2458 c-28 -77 -247 -723 -455 -1341 l-259 -767 213 0 213 0 69
198 69 197 466 3 467 2 48 -137 c26 -76 57 -165 68 -198 l21 -60 212 -3 212
-2 -35 97 c-19 54 -185 530 -368 1058 l-334 960 -301 3 c-236 2 -303 0 -306
-10z m498 -840 c98 -293 181 -539 184 -545 4 -10 -74 -13 -367 -13 -293 0
-371 3 -368 13 3 6 85 252 184 544 98 293 181 533 184 533 3 0 85 -240 183
-532z"/>
<path d="M11287 2463 c-4 -3 -7 -480 -7 -1060 l0 -1053 205 0 205 0 0 350 0
350 334 0 c184 0 357 -5 387 -10 71 -14 120 -49 155 -113 l29 -52 3 -262 4
-263 209 0 209 0 0 228 c0 142 -5 262 -14 319 -16 110 -59 210 -104 241 -50
36 -134 71 -185 78 -26 4 -50 10 -52 14 -3 4 25 15 61 24 231 58 304 191 306
561 3 462 -136 615 -587 645 -160 11 -1148 13 -1158 3z m1198 -362 c51 -17
100 -66 115 -116 17 -58 24 -278 12 -359 -17 -104 -47 -155 -112 -191 l-55
-30 -377 -3 -378 -3 0 354 c0 194 3 357 7 361 14 13 743 1 788 -13z"/>
<path d="M13161 2448 c7 -13 183 -308 391 -656 l378 -634 0 -404 0 -404 205 0
205 0 0 404 0 404 395 647 c217 355 395 650 395 655 0 6 -89 10 -230 10 l-231
0 -22 -37 c-12 -20 -130 -223 -262 -451 -132 -227 -244 -413 -250 -412 -5 0
-124 203 -264 450 l-255 450 -233 0 -234 0 12 -22z"/>
<path d="M18060 2295 l0 -175 315 0 315 0 0 -885 0 -885 205 0 205 0 0 885 0
885 315 0 315 0 0 175 0 175 -835 0 -835 0 0 -175z"/>
<path d="M21970 1410 l0 -1060 205 0 205 0 0 351 0 350 363 -3 c323 -3 366 -5
402 -21 55 -25 90 -61 116 -121 21 -47 23 -69 27 -303 l4 -253 204 0 204 0 0
254 c0 285 -11 373 -57 459 -45 83 -127 131 -278 163 -27 5 -23 8 45 28 200
58 263 134 296 356 22 153 15 380 -15 494 -63 239 -212 333 -561 356 -80 5
-373 10 -652 10 l-508 0 0 -1060z m1200 690 c90 -35 114 -77 131 -230 13 -119
-1 -279 -30 -344 -10 -23 -32 -54 -50 -69 -63 -52 -102 -57 -488 -57 l-353 0
0 361 0 361 378 -4 c286 -3 385 -8 412 -18z"/>
<path d="M24030 1410 l0 -1060 740 0 740 0 0 175 0 175 -535 0 -535 0 0 280 0
280 505 0 505 0 0 165 0 165 -505 0 -505 0 0 265 0 265 530 0 530 0 0 175 0
175 -735 0 -735 0 0 -1060z"/>
</g>
</svg>
